<?xml version="1.0" encoding="UTF-8"?>
<svg viewBox="0 0 229 94" xmlns="http://www.w3.org/2000/svg">
<path d="m183.5 22.5c0 3.5899-4.134 7-8 7s-5.5-3.4101-5.5-7 1.134-6.5 5-6.5 8.5 2.9101 8.5 6.5z" fill="#F4D35E"/>
<path d="m7.96 93.08c-4.672 0-7.008-2.496-7.008-7.488v-37.824c0-8.704 1.92-15.2 5.76-19.488 3.84-4.288 9.216-6.432 16.128-6.432 7.04 0 12.576 2.24 16.608 6.72 4.096 4.48 6.144 11.04 6.144 19.68 0 5.76-0.832 10.368-2.496 13.824-1.664 3.392-3.968 5.856-6.912 7.392s-6.336 2.304-10.176 2.304c-3.328 0-6.08-0.48-8.256-1.44-2.112-0.96-3.776-2.432-4.992-4.416 0.448 1.28 0.768 2.528 0.96 3.744 0.256 1.216 0.416 2.624 0.48 4.224 0.128 1.6 0.192 3.648 0.192 6.144v5.568c0 4.992-2.144 7.488-6.432 7.488zm15.552-32.544c2.688 0 4.768-0.928 6.24-2.784 1.536-1.92 2.304-5.504 2.304-10.752s-0.768-8.8-2.304-10.656c-1.472-1.92-3.552-2.88-6.24-2.88s-4.8 0.96-6.336 2.88c-1.472 1.856-2.208 5.408-2.208 10.656s0.736 8.832 2.208 10.752c1.536 1.856 3.648 2.784 6.336 2.784z" fill="#0F1219"/>
<path d="m68.591 65.336c0 4.288-2.24 6.432-6.72 6.432-2.176 0-3.904-0.512-5.184-1.536-1.28-1.088-1.92-2.72-1.92-4.896v-26.576c0-2.048 0.512-3.648 1.536-4.8 1.088-1.152 2.88-1.728 5.376-1.728s4.256 0.576 5.28 1.728c1.088 1.152 1.632 2.752 1.632 4.8v26.576z" fill="#0F1219"/>
<path d="m85.768 71.768c-4.608 0-6.912-2.176-6.912-6.528v-23.04c0-6.144 1.952-11.008 5.856-14.592 3.968-3.584 9.184-5.376 15.648-5.376s11.648 1.792 15.552 5.376c3.968 3.584 5.952 8.448 5.952 14.592v23.04c0 4.352-2.304 6.528-6.912 6.528s-6.912-2.176-6.912-6.528v-22.272c0-3.008-0.672-5.28-2.016-6.816-1.344-1.6-3.232-2.4-5.664-2.4s-4.32 0.8-5.664 2.4c-1.344 1.536-2.016 3.808-2.016 6.816v22.272c0 4.352-2.304 6.528-6.912 6.528z" fill="#0F1219"/>
<path d="m174.8 76.856c0 5.44-2.56 9.504-7.68 12.192s-12.448 4.032-21.984 4.032c-4.928 0-8.544-0.64-10.848-1.92-2.24-1.216-3.36-3.136-3.36-5.76 0-1.856 0.512-3.104 1.536-3.744 1.024-0.576 2.4-0.864 4.128-0.864 1.28 0 2.368 0.064 3.264 0.192 0.896 0.192 1.856 0.352 2.88 0.48 1.088 0.192 2.432 0.288 4.032 0.288 5.056 0 8.672-0.384 10.848-1.152 2.24-0.768 3.36-2.336 3.36-4.704 0-1.984-0.8-3.584-2.4-4.8s-3.616-1.824-6.048-1.824c-14.72 0-22.08-7.84-22.08-23.52 0-8 1.856-13.92 5.568-17.76s9.248-5.76 16.608-5.76c4.864 0 8.896 0.832 12.096 2.496 1.536-5.76 4.8-8.64 9.792-8.64 2.432 0 4.288 0.64 5.568 1.92 1.344 1.216 2.016 3.008 2.016 5.376 0 2.176-0.64 3.744-1.92 4.704s-3.328 1.44-6.144 1.44c-1.216 0-2.336 0.096-3.36 0.288 2.752 3.84 4.128 9.184 4.128 16.032 0 4.288-0.64 7.84-1.92 10.656-1.216 2.816-3.488 5.152-6.816 7.008 3.2 1.152 5.44 2.944 6.72 5.376 1.344 2.368 2.016 5.024 2.016 7.968zm-30.528-31.104c0 8 2.784 12 8.352 12s8.352-4 8.352-12c0-4.16-0.704-7.2-2.112-9.12-1.344-1.92-3.424-2.88-6.24-2.88-2.752 0-4.832 0.96-6.24 2.88s-2.112 4.96-2.112 9.12z" fill="#0F1219"/>
<path d="m206.44 71.768c-6.848 0-12.256-1.952-16.224-5.856s-5.952-10.208-5.952-18.912c0-8.768 1.984-15.072 5.952-18.912 3.968-3.904 9.376-5.856 16.224-5.856s12.256 1.952 16.224 5.856c3.968 3.84 5.952 10.144 5.952 18.912 0 8.704-1.984 15.008-5.952 18.912s-9.376 5.856-16.224 5.856zm0-11.52c1.792 0 3.296-0.352 4.512-1.056 1.216-0.768 2.144-2.112 2.784-4.032 0.704-1.92 1.056-4.64 1.056-8.16s-0.352-6.24-1.056-8.16c-0.64-1.92-1.568-3.232-2.784-3.936-1.216-0.768-2.72-1.152-4.512-1.152-1.728 0-3.232 0.384-4.512 1.152-1.216 0.704-2.176 2.016-2.88 3.936-0.64 1.92-0.96 4.64-0.96 8.16s0.32 6.24 0.96 8.16c0.704 1.92 1.664 3.264 2.88 4.032 1.28 0.704 2.784 1.056 4.512 1.056z" fill="#0F1219"/>
<path d="m58.875 27.188 1.8125-9.0625-7.25-2.7188 12.688-13.594-1.8125 9.0625 7.25 2.7188-12.688 13.594z" fill="#F4D35E" opacity=".2"/>
<path d="m72.445 13.386c-0.0344-0.1453-0.104-0.2798-0.2028-0.3917-0.0988-0.1118-0.2237-0.1975-0.3636-0.2495l-6.5262-2.448 1.6607-8.3069c0.0376-0.19301 0.0114-0.39301-0.0746-0.56983-0.086-0.17681-0.2272-0.32085-0.4023-0.41037s-0.3745-0.11967-0.5683-0.085894c-0.1937 0.033774-0.3711 0.12963-0.5056 0.27312l-12.688 13.594c-0.103 0.1086-0.1776 0.241-0.217 0.3855-0.0394 0.1444-0.0424 0.2963-0.0087 0.4422 0.0337 0.1458 0.1029 0.2811 0.2016 0.3936 0.0987 0.1126 0.2237 0.199 0.3639 0.2514l6.5284 2.448-1.6561 8.2979c-0.0376 0.193-0.0114 0.393 0.0746 0.5698s0.2272 0.3208 0.4023 0.4104c0.1751 0.0895 0.3745 0.1196 0.5683 0.0859 0.1937-0.0338 0.3711-0.1297 0.5056-0.2732l12.688-13.594c0.1012-0.1086 0.1741-0.2404 0.2125-0.3838 0.0383-0.1434 0.0408-0.294 0.0073-0.4386zm-12.055 10.856 1.186-5.9337c0.0425-0.2104 0.0088-0.4291-0.0949-0.6171-0.1037-0.1879-0.2708-0.3329-0.4715-0.4092l-5.9858-2.2486 9.5859-10.27-1.1849 5.9337c-0.0425 0.2104-0.0088 0.4291 0.0949 0.617 0.1037 0.188 0.2708 0.333 0.4715 0.4093l5.9812 2.243-9.5824 10.276z" fill="#F4D35E"/>
</svg>
